<svg width="64" height="64" viewBox="0 0 64 64" fill="none" xmlns="http://www.w3.org/2000/svg">
<path d="M46.6813 36.4567H46.5261C45.3434 39.701 42.829 42.285 39.618 43.5548V36.4567L43.4877 33.0019L39.618 29.5471V24.7116C43.0032 24.7211 45.7693 22.0152 45.8358 18.6316C45.8358 14.469 41.8632 13.0012 39.618 13.0012C39.0369 12.9902 38.4559 13.0535 37.8906 13.1912V13.3987H38.7709C40.0392 13.1754 41.2489 14.0225 41.4721 15.2907C41.4848 15.3604 41.4943 15.4332 41.5006 15.5061C41.4484 16.7553 40.3923 17.7243 39.1446 17.6705C39.1129 17.6689 39.0797 17.6673 39.048 17.6642C35.1784 17.6642 30.6199 14.5212 25.6625 14.5212C21.7834 14.3138 18.4599 17.262 18.2003 21.1364C18.0799 23.5621 19.7424 25.7154 22.1206 26.2142V26.0242C21.3939 25.5571 20.9822 24.7274 21.0503 23.8645C21.1674 22.2574 22.5655 21.0477 24.1742 21.1649C24.1916 21.1681 24.2106 21.1697 24.228 21.1712C28.3906 21.1712 35.1087 24.6261 39.2713 24.6261H39.4264V29.6009L35.5568 33.0557L39.4264 36.5106V43.7132C37.8779 44.223 36.255 44.4747 34.6242 44.4557C31.9753 44.5887 29.3707 43.7337 27.3187 42.0554L34.3313 38.9125V24.7971L24.5209 29.1148C25.4583 26.344 27.5214 24.0988 30.2035 22.9319V22.7767C23.0532 24.3664 17.3184 29.4948 17.3184 36.5597C17.3184 44.7819 23.6913 50.9997 32.8635 50.9997C42.3809 50.9997 46.6813 44.0916 46.6813 37.0442V36.4567ZM27.0258 41.7942C24.8677 39.6377 23.715 36.6721 23.848 33.6242C23.8227 32.2308 24.0206 30.8438 24.4354 29.5138L27.6829 28.0287V41.449L27.0258 41.7942Z" fill="black"/>
</svg>
