<svg width="24" height="24" viewBox="0 0 24 24" fill="none" xmlns="http://www.w3.org/2000/svg">
<path d="M22.0005 8.2728C21.9629 9.57842 21.4261 10.8199 20.5005 11.7416L17.2427 15.0012C16.7682 15.4783 16.2038 15.8565 15.5822 16.114C14.9606 16.3715 14.294 16.5031 13.6212 16.5012H13.6165C12.9321 16.5008 12.2548 16.3631 11.6246 16.0965C10.9943 15.8298 10.4239 15.4396 9.94697 14.9488C9.47007 14.458 9.09636 13.8766 8.84793 13.2389C8.59949 12.6013 8.48137 11.9203 8.50053 11.2362C8.50613 11.0373 8.59051 10.8488 8.73512 10.7121C8.87973 10.5754 9.07272 10.5017 9.27163 10.5073C9.47054 10.5129 9.65908 10.5973 9.79578 10.7419C9.93248 10.8865 10.0061 11.0795 10.0005 11.2784C9.98688 11.7621 10.0703 12.2436 10.2459 12.6945C10.4215 13.1454 10.6857 13.5565 11.0229 13.9036C11.36 14.2506 11.7634 14.5266 12.209 14.7151C12.6546 14.9036 13.1335 15.0009 13.6174 15.0012C14.0931 15.0025 14.5642 14.9094 15.0037 14.7274C15.4432 14.5454 15.8422 14.2781 16.1777 13.9409L19.4355 10.6831C20.1077 10.0025 20.4833 9.0836 20.4803 8.12703C20.4773 7.17046 20.096 6.25393 19.4196 5.57753C18.7432 4.90113 17.8266 4.51981 16.8701 4.51682C15.9135 4.51382 14.9946 4.8894 14.314 5.56155L13.2827 6.5928C13.1409 6.72752 12.9521 6.80151 12.7565 6.79901C12.561 6.7965 12.3741 6.7177 12.2358 6.5794C12.0975 6.4411 12.0187 6.25424 12.0162 6.05867C12.0137 5.8631 12.0877 5.67429 12.2224 5.53249L13.2537 4.50124C13.7294 4.0253 14.2943 3.64775 14.916 3.39017C15.5378 3.13258 16.2041 3 16.8771 3C17.5501 3 18.2164 3.13258 18.8382 3.39017C19.4599 3.64775 20.0248 4.0253 20.5005 4.50124C20.9933 4.99526 21.3805 5.5844 21.6383 6.23279C21.8962 6.88118 22.0194 7.57527 22.0005 8.2728ZM9.71928 17.4069L8.68803 18.4381C8.35168 18.7767 7.95138 19.0451 7.51039 19.2276C7.06941 19.4101 6.59654 19.5031 6.11928 19.5012C5.40332 19.5007 4.70359 19.2879 4.1085 18.8898C3.51342 18.4917 3.04968 17.9261 2.77589 17.2646C2.5021 16.603 2.43054 15.8752 2.57026 15.173C2.70997 14.4708 3.05468 13.8257 3.56085 13.3194L6.81303 10.0616C7.32527 9.54661 7.98051 9.19759 8.69365 9.05982C9.40679 8.92205 10.1449 9.0019 10.8121 9.28899C11.4792 9.57608 12.0447 10.0571 12.435 10.6697C12.8252 11.2823 13.0223 11.9981 13.0005 12.7241C12.9949 12.923 13.0686 13.116 13.2053 13.2606C13.342 13.4052 13.5305 13.4896 13.7294 13.4951C13.9284 13.5007 14.1213 13.4271 14.2659 13.2904C14.4106 13.1537 14.4949 12.9652 14.5005 12.7662C14.5185 12.0698 14.3949 11.377 14.137 10.7298C13.8792 10.0826 13.4925 9.4945 13.0005 9.00124C12.0398 8.04089 10.7369 7.50141 9.3785 7.50141C8.02007 7.50141 6.71724 8.04089 5.75647 9.00124L2.50054 12.2591C1.7845 12.9748 1.29671 13.8867 1.09879 14.8796C0.900883 15.8725 1.00174 16.9018 1.38861 17.8374C1.77549 18.7729 2.43102 19.5729 3.27237 20.136C4.11372 20.6991 5.10312 21.0002 6.11553 21.0012C6.78854 21.0032 7.45524 20.8716 8.07705 20.6141C8.69885 20.3567 9.26341 19.9784 9.73803 19.5012L10.7693 18.47C10.8907 18.327 10.9541 18.1438 10.947 17.9564C10.94 17.769 10.8629 17.591 10.7312 17.4576C10.5994 17.3241 10.4224 17.2449 10.2351 17.2355C10.0478 17.2262 9.86375 17.2873 9.71928 17.4069Z" fill="#1F2129"/>
</svg>
